#tb 0: 32768/982057
#media_type 0: video
#codec_id 0: rawvideo
#dimensions 0: 352x240
#sar 0: 0/1
0,          0,          0,        1,   126720, 0xcefaec47
0,          1,          1,        1,   126720, 0xa416ece5
0,          2,          2,        1,   126720, 0xa416ece5
0,          3,          3,        1,   126720, 0xa416ece5
0,          4,          4,        1,   126720, 0x60d6ed27
0,          5,          5,        1,   126720, 0x259af497
0,          6,          6,        1,   126720, 0x5e6ff4d7
0,          7,          7,        1,   126720, 0xcc10f4b7
0,          8,          8,        1,   126720, 0x763ab817
0,          9,          9,        1,   126720, 0xe95fb8d7
0,         10,         10,        1,   126720, 0xe2b1b917
0,         11,         11,        1,   126720, 0x11abb8f7
0,         12,         12,        1,   126720, 0x4b62b947
0,         13,         13,        1,   126720, 0xcaf2bbb7
0,         14,         14,        1,   126720, 0x2953bc37
0,         15,         15,        1,   126720, 0x1dd9bbd7
0,         16,         16,        1,   126720, 0x105eb927
0,         17,         17,        1,   126720, 0x7fa3ae27
0,         18,         18,        1,   126720, 0x722e99f7
0,         19,         19,        1,   126720, 0x5ac9a827
0,         20,         20,        1,   126720, 0x07beba77
0,         21,         21,        1,   126720, 0x29d6a887
0,         22,         22,        1,   126720, 0xa5caab87
0,         23,         23,        1,   126720, 0x9ca7aac7
0,         24,         24,        1,   126720, 0xb7debcd7
0,         25,         25,        1,   126720, 0xd115a757
0,         26,         26,        1,   126720, 0x6ddaef32
0,         27,         27,        1,   126720, 0xde1bb900
0,         28,         28,        1,   126720, 0xac6c071b
0,         29,         29,        1,   126720, 0x4a9f897c
0,         30,         30,        1,   126720, 0xd8fa050f
0,         31,         31,        1,   126720, 0x5d06be59
0,         32,         32,        1,   126720, 0xdc3e0837
0,         33,         33,        1,   126720, 0xcac6da2b
0,         34,         34,        1,   126720, 0x6672dfc9
0,         35,         35,        1,   126720, 0x7491b176
0,         36,         36,        1,   126720, 0xa9477df0
0,         37,         37,        1,   126720, 0xe976c34f
0,         38,         38,        1,   126720, 0xdb7ab0e2
0,         39,         39,        1,   126720, 0x1b42db35
0,         40,         40,        1,   126720, 0xc6e10f9f
0,         41,         41,        1,   126720, 0x169d61b6
0,         42,         42,        1,   126720, 0xc7623119
0,         43,         43,        1,   126720, 0x5b9b7543
0,         44,         44,        1,   126720, 0x68c27aca
0,         45,         45,        1,   126720, 0xa0e4e1c9
0,         46,         46,        1,   126720, 0xbbdae87e
0,         47,         47,        1,   126720, 0xe67e00a1
0,         48,         48,        1,   126720, 0x648ea605
0,         49,         49,        1,   126720, 0x5becb718
0,         50,         50,        1,   126720, 0xb79ab1da
0,         51,         51,        1,   126720, 0x0d52d1dc
0,         52,         52,        1,   126720, 0x1277b853
0,         53,         53,        1,   126720, 0xc57cbc83
0,         54,         54,        1,   126720, 0x2126bdc3
0,         55,         55,        1,   126720, 0x4c1ef41f
0,         56,         56,        1,   126720, 0x185f6a2c
0,         57,         57,        1,   126720, 0xb2b5a7d3
0,         58,         58,        1,   126720, 0x32d7a26d
0,         59,         59,        1,   126720, 0x0bffd118
0,         60,         60,        1,   126720, 0x2eed823a
0,         61,         61,        1,   126720, 0xc4c0147c
0,         62,         62,        1,   126720, 0x1f8bf8ac
0,         63,         63,        1,   126720, 0xfcb715e8
0,         64,         64,        1,   126720, 0xc3e9fa9c
0,         65,         65,        1,   126720, 0x9ad8572c
0,         66,         66,        1,   126720, 0x2800596d
0,         67,         67,        1,   126720, 0x3caa5094
0,         68,         68,        1,   126720, 0x6162e000
0,         69,         69,        1,   126720, 0x18200f2c
0,         70,         70,        1,   126720, 0x649e699f
0,         71,         71,        1,   126720, 0x5f513367
0,         72,         72,        1,   126720, 0x71fbf4a8
0,         73,         73,        1,   126720, 0x5bff7b97
0,         74,         74,        1,   126720, 0xbad453d4
0,         75,         75,        1,   126720, 0x56e6161d
0,         76,         76,        1,   126720, 0x524f2980
0,         77,         77,        1,   126720, 0x0589405a
0,         78,         78,        1,   126720, 0x5c264043
0,         79,         79,        1,   126720, 0x2394696f
0,         80,         80,        1,   126720, 0x1aa0cd15
0,         81,         81,        1,   126720, 0xd6ec7840
0,         82,         82,        1,   126720, 0xde5531f0
0,         83,         83,        1,   126720, 0x03a42c3a
0,         84,         84,        1,   126720, 0xbdee0efb
0,         85,         85,        1,   126720, 0xa6012736
0,         86,         86,        1,   126720, 0x448f5ae6
0,         87,         87,        1,   126720, 0x8a2550c3
0,         88,         88,        1,   126720, 0x143104e7
0,         89,         89,        1,   126720, 0x75db363d
0,         90,         90,        1,   126720, 0x906d2f9d
0,         91,         91,        1,   126720, 0xfc7b30ab
0,         92,         92,        1,   126720, 0xd3edaa62
0,         93,         93,        1,   126720, 0x6267f3fc
0,         94,         94,        1,   126720, 0x87b6c67f
0,         95,         95,        1,   126720, 0x84da3b79
0,         96,         96,        1,   126720, 0x72fbae15
0,         97,         97,        1,   126720, 0xb8474a80
0,         98,         98,        1,   126720, 0xbeae088b
0,         99,         99,        1,   126720, 0x538b1a14
0,        100,        100,        1,   126720, 0x07bbddcd
0,        101,        101,        1,   126720, 0x807ddf8f
0,        102,        102,        1,   126720, 0x325bb46d
0,        103,        103,        1,   126720, 0xd80c2f2a
0,        104,        104,        1,   126720, 0xfc1b0dec
0,        105,        105,        1,   126720, 0x46068ebc
0,        106,        106,        1,   126720, 0xcd987941
0,        107,        107,        1,   126720, 0x52f37f2e
0,        108,        108,        1,   126720, 0xc96931a2
